<svg width="265" height="120" viewBox="0 0 265 120" fill="none" xmlns="http://www.w3.org/2000/svg">
<path d="M15 56H250" stroke="black" stroke-width="3" stroke-linecap="round"/>
<path d="M15 110H250" stroke="black" stroke-width="3" stroke-linecap="round"/>
<path d="M62.8529 47.775L121.469 10.4327" stroke="black" stroke-width="3" stroke-linecap="round"/>
<path d="M181 48L122 10" stroke="black" stroke-width="3" stroke-linecap="round"/>
<path d="M206 48L147 10" stroke="black" stroke-width="3" stroke-linecap="round"/>
<path d="M147.642 11.2415C148.328 10.7767 148.507 9.84394 148.042 9.15824C147.577 8.47253 146.645 8.2935 145.959 8.75836L147.642 11.2415ZM135.842 19.2416L147.642 11.2415L145.959 8.75836L134.158 16.7584L135.842 19.2416Z" fill="black"/>
<line x1="83.5" y1="34" x2="83.5" y2="16" stroke="black" stroke-width="3"/>
<line x1="83" y1="17.5" x2="95" y2="17.5" stroke="black" stroke-width="3"/>
<line x1="94.5" y1="28" x2="94.5" y2="16" stroke="black" stroke-width="3"/>
<path d="M58.2764 89H53.0967V73H58.4404C60.0081 73 61.3545 73.3203 62.4795 73.9609C63.6045 74.5964 64.4665 75.5104 65.0654 76.7031C65.6696 77.8906 65.9717 79.3151 65.9717 80.9766C65.9717 82.6432 65.667 84.0755 65.0576 85.2734C64.4535 86.4714 63.5785 87.3932 62.4326 88.0391C61.2868 88.6797 59.9014 89 58.2764 89ZM55.5107 86.8906H58.1436C59.3623 86.8906 60.3753 86.6615 61.1826 86.2031C61.9899 85.7396 62.5941 85.0703 62.9951 84.1953C63.3962 83.3151 63.5967 82.2422 63.5967 80.9766C63.5967 79.7214 63.3962 78.6562 62.9951 77.7812C62.5993 76.9062 62.0081 76.2422 61.2217 75.7891C60.4352 75.3359 59.4587 75.1094 58.292 75.1094H55.5107V86.8906ZM71.3877 73V89H68.9736V73H71.3877ZM74.9033 89V73H84.9346V75.0781H77.3174V79.9531H84.4111V82.0234H77.3174V86.9219H85.0283V89H74.9033ZM87.3701 75.0781V73H99.7529V75.0781H94.7607V89H92.3545V75.0781H87.3701ZM104.903 73V89H102.489V73H104.903Z" fill="black"/>
<path d="M134.281 89V73H144.313V75.0781H136.695V79.9531H143.789V82.0234H136.695V86.9219H144.406V89H134.281ZM156.264 77.2031C156.18 76.4635 155.837 75.8906 155.232 75.4844C154.628 75.0729 153.868 74.8672 152.951 74.8672C152.295 74.8672 151.727 74.9714 151.248 75.1797C150.769 75.3828 150.396 75.6641 150.131 76.0234C149.87 76.3776 149.74 76.7812 149.74 77.2344C149.74 77.6146 149.829 77.9427 150.006 78.2187C150.188 78.4948 150.425 78.7266 150.717 78.9141C151.014 79.0964 151.331 79.25 151.67 79.375C152.008 79.4948 152.334 79.5937 152.646 79.6719L154.209 80.0781C154.719 80.2031 155.243 80.3724 155.779 80.5859C156.316 80.7995 156.813 81.0807 157.271 81.4297C157.73 81.7786 158.1 82.2109 158.381 82.7266C158.667 83.2422 158.811 83.8594 158.811 84.5781C158.811 85.4844 158.576 86.2891 158.107 86.9922C157.644 87.6953 156.969 88.25 156.084 88.6562C155.204 89.0625 154.139 89.2656 152.889 89.2656C151.691 89.2656 150.654 89.0755 149.779 88.6953C148.904 88.3151 148.219 87.776 147.725 87.0781C147.23 86.375 146.956 85.5417 146.904 84.5781H149.326C149.373 85.1562 149.561 85.638 149.889 86.0234C150.222 86.4036 150.646 86.6875 151.162 86.875C151.683 87.0573 152.253 87.1484 152.873 87.1484C153.555 87.1484 154.162 87.0417 154.693 86.8281C155.23 86.6094 155.652 86.3073 155.959 85.9219C156.266 85.5312 156.42 85.0755 156.42 84.5547C156.42 84.0807 156.285 83.6927 156.014 83.3906C155.748 83.0885 155.386 82.8385 154.928 82.6406C154.475 82.4427 153.962 82.2682 153.389 82.1172L151.498 81.6016C150.217 81.2526 149.201 80.7396 148.451 80.0625C147.706 79.3854 147.334 78.4896 147.334 77.375C147.334 76.4531 147.584 75.6484 148.084 74.9609C148.584 74.2734 149.261 73.7396 150.115 73.3594C150.969 72.974 151.933 72.7812 153.006 72.7812C154.089 72.7812 155.045 72.9714 155.873 73.3516C156.706 73.7318 157.363 74.2552 157.842 74.9219C158.321 75.5833 158.571 76.3437 158.592 77.2031H156.264ZM160.906 75.0781V73H173.289V75.0781H168.297V89H165.891V75.0781H160.906ZM175.486 89H172.924L178.682 73H181.471L187.229 89H184.666L180.143 75.9062H180.018L175.486 89ZM175.916 82.7344H184.229V84.7656H175.916V82.7344ZM186.859 75.0781V73H199.242V75.0781H194.25V89H191.844V75.0781H186.859ZM201.979 89V73H212.01V75.0781H204.393V79.9531H211.486V82.0234H204.393V86.9219H212.104V89H201.979Z" fill="black"/>
<circle cx="117.5" cy="75.5" r="2.5" fill="#18274B"/>
<circle cx="122.5" cy="86.5" r="2.5" fill="#991C1C"/>
</svg>
